<?xml version="1.0" encoding="UTF-8" standalone="no"?>
<svg
   xmlns:dc="http://purl.org/dc/elements/1.1/"
   xmlns:cc="http://creativecommons.org/ns#"
   xmlns:rdf="http://www.w3.org/1999/02/22-rdf-syntax-ns#"
   xmlns:svg="http://www.w3.org/2000/svg"
   xmlns="http://www.w3.org/2000/svg"
   xmlns:sodipodi="http://sodipodi.sourceforge.net/DTD/sodipodi-0.dtd"
   xmlns:inkscape="http://www.inkscape.org/namespaces/inkscape"
   version="1.0"
   width="200.000000pt"
   height="200.000000pt"
   viewBox="0 0 200.000000 200.000000"
   preserveAspectRatio="xMidYMid meet"
   id="svg32"
   sodipodi:docname="placeholder-qrcode.svg"
   inkscape:version="0.92.4 (f8dce91, 2019-08-02)">
  <metadata
     id="metadata38">
    <rdf:RDF>
      <cc:Work
         rdf:about="">
        <dc:format>image/svg+xml</dc:format>
        <dc:type
           rdf:resource="http://purl.org/dc/dcmitype/StillImage" />
      </cc:Work>
    </rdf:RDF>
  </metadata>
  <defs
     id="defs36" />
  <sodipodi:namedview
     pagecolor="#ffffff"
     bordercolor="#666666"
     borderopacity="1"
     objecttolerance="10"
     gridtolerance="10"
     guidetolerance="10"
     inkscape:pageopacity="0"
     inkscape:pageshadow="2"
     inkscape:window-width="1853"
     inkscape:window-height="1017"
     id="namedview34"
     showgrid="false"
     inkscape:zoom="0.885"
     inkscape:cx="133.33333"
     inkscape:cy="133.33333"
     inkscape:window-x="67"
     inkscape:window-y="27"
     inkscape:window-maximized="1"
     inkscape:current-layer="svg32" />
  <g
     transform="translate(0.000000,200.000000) scale(0.100000,-0.100000)"
     fill="#000000"
     stroke="none"
     id="g30"
     style="fill:#b3b3b3">
    <path
       d="M160 1560 l0 -280 280 0 280 0 0 280 0 280 -280 0 -280 0 0 -280z m480 0 l0 -200 -200 0 -200 0 0 200 0 200 200 0 200 0 0 -200z"
       id="path2"
       style="fill:#b3b3b3" />
    <path
       d="M320 1560 l0 -120 120 0 120 0 0 120 0 120 -120 0 -120 0 0 -120z"
       id="path4"
       style="fill:#b3b3b3" />
    <path
       d="M960 1720 l0 -120 80 0 80 0 0 -40 0 -40 -160 0 -160 0 0 -160 0 -160 -80 0 -80 0 0 -40 0 -40 -40 0 -40 0 0 -80 0 -80 -40 0 -40 0 0 120 0 120 -40 0 -40 0 0 -40 0 -40 -40 0 -40 0 0 40 0 40 -80 0 -80 0 0 -40 0 -40 80 0 80 0 0 -40 0 -40 40 0 40 0 0 -40 0 -40 -40 0 -40 0 0 -40 0 -40 40 0 40 0 0 -40 0 -40 80 0 80 0 0 40 0 40 40 0 40 0 0 -40 0 -40 40 0 40 0 0 40 0 40 -40 0 -40 0 0 40 0 40 40 0 40 0 0 40 0 40 40 0 40 0 0 -40 0 -40 80 0 80 0 0 -40 0 -40 -80 0 -80 0 0 -120 0 -120 40 0 40 0 0 40 0 40 40 0 40 0 0 -40 0 -40 120 0 120 0 0 -80 0 -80 -40 0 -40 0 0 -80 0 -80 -40 0 -40 0 0 40 0 40 -40 0 -40 0 0 -40 0 -40 -80 0 -80 0 0 -80 0 -80 80 0 80 0 0 80 0 80 40 0 40 0 0 -80 0 -80 40 0 40 0 0 40 0 40 40 0 40 0 0 -40 0 -40 160 0 160 0 0 200 0 200 40 0 40 0 0 40 0 40 40 0 40 0 0 -40 0 -40 40 0 40 0 0 80 0 80 -40 0 -40 0 0 40 0 40 -40 0 -40 0 0 -40 0 -40 -80 0 -80 0 0 40 0 40 40 0 40 0 0 40 0 40 -80 0 -80 0 0 40 0 40 40 0 40 0 0 40 0 40 40 0 40 0 0 -40 0 -40 80 0 80 0 0 -40 0 -40 80 0 80 0 0 120 0 120 -40 0 -40 0 0 40 0 40 -80 0 -80 0 0 -40 0 -40 -40 0 -40 0 0 40 0 40 -120 0 -120 0 0 -40 0 -40 -40 0 -40 0 0 40 0 40 -120 0 -120 0 0 -80 0 -80 -40 0 -40 0 0 40 0 40 -40 0 -40 0 0 40 0 40 40 0 40 0 0 80 0 80 40 0 40 0 0 -40 0 -40 40 0 40 0 0 80 0 80 80 0 80 0 0 80 0 80 -40 0 -40 0 0 40 0 40 40 0 40 0 0 80 0 80 -40 0 -40 0 0 -80 0 -80 -40 0 -40 0 0 80 0 80 -40 0 -40 0 0 -120z m-240 -640 l0 -40 -40 0 -40 0 0 40 0 40 40 0 40 0 0 -40z m480 -40 l0 -80 40 0 40 0 0 80 0 80 80 0 80 0 0 -40 0 -40 -40 0 -40 0 0 -40 0 -40 -40 0 -40 0 0 -40 0 -40 40 0 40 0 0 -160 0 -160 40 0 40 0 0 40 0 40 40 0 40 0 0 -40 0 -40 -40 0 -40 0 0 -40 0 -40 -80 0 -80 0 0 160 0 160 -40 0 -40 0 0 -40 0 -40 -40 0 -40 0 0 80 0 80 -40 0 -40 0 0 -80 0 -80 -40 0 -40 0 0 80 0 80 40 0 40 0 0 40 0 40 -40 0 -40 0 0 40 0 40 40 0 40 0 0 -40 0 -40 40 0 40 0 0 80 0 80 40 0 40 0 0 -80z m560 -40 l0 -40 -40 0 -40 0 0 40 0 40 40 0 40 0 0 -40z m-480 -640 l0 -40 40 0 40 0 0 -40 0 -40 -80 0 -80 0 0 80 0 80 40 0 40 0 0 -40z"
       id="path6"
       style="fill:#b3b3b3" />
    <path
       d="M1120 920 l0 -40 40 0 40 0 0 40 0 40 -40 0 -40 0 0 -40z"
       id="path8"
       style="fill:#b3b3b3" />
    <path
       d="M1280 1560 l0 -280 280 0 280 0 0 280 0 280 -280 0 -280 0 0 -280z m480 0 l0 -200 -200 0 -200 0 0 200 0 200 200 0 200 0 0 -200z"
       id="path10"
       style="fill:#b3b3b3" />
    <path
       d="M1440 1560 l0 -120 120 0 120 0 0 120 0 120 -120 0 -120 0 0 -120z"
       id="path12"
       style="fill:#b3b3b3" />
    <path
       d="M800 1680 l0 -80 40 0 40 0 0 80 0 80 -40 0 -40 0 0 -80z"
       id="path14"
       style="fill:#b3b3b3" />
    <path
       d="M1120 1320 l0 -40 40 0 40 0 0 40 0 40 -40 0 -40 0 0 -40z"
       id="path16"
       style="fill:#b3b3b3" />
    <path
       d="M160 960 l0 -80 40 0 40 0 0 80 0 80 -40 0 -40 0 0 -80z"
       id="path18"
       style="fill:#b3b3b3" />
    <path
       d="M160 440 l0 -280 280 0 280 0 0 280 0 280 -280 0 -280 0 0 -280z m480 0 l0 -200 -200 0 -200 0 0 200 0 200 200 0 200 0 0 -200z"
       id="path20"
       style="fill:#b3b3b3" />
    <path
       d="M320 440 l0 -120 120 0 120 0 0 120 0 120 -120 0 -120 0 0 -120z"
       id="path22"
       style="fill:#b3b3b3" />
    <path
       d="M880 520 l0 -40 -40 0 -40 0 0 -40 0 -40 40 0 40 0 0 40 0 40 40 0 40 0 0 40 0 40 -40 0 -40 0 0 -40z"
       id="path24"
       style="fill:#b3b3b3" />
    <path
       d="M1680 440 l0 -40 -40 0 -40 0 0 -40 0 -40 40 0 40 0 0 40 0 40 40 0 40 0 0 -40 0 -40 40 0 40 0 0 80 0 80 -80 0 -80 0 0 -40z"
       id="path26"
       style="fill:#b3b3b3" />
    <path
       d="M1680 200 l0 -40 40 0 40 0 0 40 0 40 -40 0 -40 0 0 -40z"
       id="path28"
       style="fill:#b3b3b3" />
  </g>
</svg>
